<?xml version="1.0" encoding="utf-8"?>
<!-- Generator: Adobe Illustrator 19.0.0, SVG Export Plug-In . SVG Version: 6.00 Build 0)  -->
<svg version="1.1" id="Layer_1" xmlns="http://www.w3.org/2000/svg" xmlns:xlink="http://www.w3.org/1999/xlink" x="0px" y="0px"
	 viewBox="0 0 841.9 595.3" style="enable-background:new 0 0 841.9 595.3;" xml:space="preserve">
<style type="text/css">
	.st0{fill:#BF8470;}
	.st1{clip-path:url(#XMLID_2_);fill:#BF8470;}
	.st2{clip-path:url(#XMLID_3_);fill:#BF8470;}
	.st3{clip-path:url(#XMLID_4_);fill:#BF8470;}
	.st4{clip-path:url(#XMLID_5_);fill:#BF8470;}
</style>
<g id="XMLID_977_">
	<g id="XMLID_1014_">
		<path id="XMLID_1015_" class="st0" d="M459.3,334.4H456v-108h3.3V334.4z"/>
	</g>
	<g id="XMLID_1002_">
		<path id="XMLID_1013_" class="st0" d="M91.7,298.6h-5.3v-2.1h5.1c1.7,0,3.2-0.3,4.4-0.9c1.2-0.6,2.1-1.5,2.8-2.7
			c0.6-1.2,0.9-2.7,0.9-4.3c0-1.9-0.4-3.4-1.1-4.6c-0.7-1.2-1.7-2.1-2.8-2.7c-1.1-0.6-2.4-1-3.7-1.2c-1.3-0.2-2.6-0.3-3.8-0.3h-0.2
			v-0.8h0.2c0.8,0,1.6-0.1,2.6-0.2c1-0.2,1.8-0.5,2.7-1c0.9-0.5,1.6-1.2,2.1-2.2c0.6-1,0.9-2.3,0.9-3.9c0-1.5-0.3-2.8-0.8-3.9
			c-0.6-1.1-1.4-1.9-2.4-2.4c-1.1-0.5-2.4-0.8-4-0.8h-2.6V295H83v-28.6c0-0.8-0.3-1.6-0.9-2.2c-0.6-0.6-1.4-0.9-2.2-0.9h-0.7
			l-0.1-0.8h10.4c2.4,0,4.5,0.4,6.1,1.1c1.7,0.7,3,1.8,3.8,3.1c0.9,1.3,1.3,2.8,1.3,4.6c0,1.4-0.3,2.7-0.8,3.8
			c-0.6,1.1-1.3,2-2.1,2.7c-0.7,0.5-1.4,1-2.2,1.2c1.6,0.3,3,0.9,4.2,1.7c1.3,0.9,2.4,2.1,3.1,3.5c0.7,1.4,1.1,3,1.1,4.7
			c0,1.9-0.5,3.6-1.4,5.1c-0.9,1.5-2.3,2.6-4.1,3.4C96.5,298.2,94.3,298.6,91.7,298.6z"/>
		<path id="XMLID_1012_" class="st0" d="M130.3,298.6h-11.5v-0.8h0.8c0.8,0,1.6-0.3,2.2-0.9c0.6-0.6,0.9-1.3,1-2.2v-28.4
			c0-0.9-0.3-1.6-1-2.2c-0.6-0.6-1.3-0.9-2.2-0.9h-0.8v-0.8h11.5v0.8h-0.8c-0.9,0-1.6,0.3-2.2,0.9c-0.6,0.6-0.9,1.3-1,2.2v28.4
			c0,0.8,0.4,1.6,1,2.2c0.6,0.6,1.3,0.9,2.2,0.9h0.8V298.6z"/>
		<path id="XMLID_1009_" class="st0" d="M164.4,299.3c-3.6,0-6.9-0.8-9.6-2.3c-2.8-1.6-5-3.8-6.5-6.6c-1.6-2.8-2.4-6.1-2.4-9.9
			c0-3.7,0.8-7,2.4-9.9c1.6-2.8,3.8-5,6.5-6.6c2.8-1.6,6-2.4,9.6-2.4c3.7,0,6.9,0.8,9.7,2.4c2.8,1.6,5,3.8,6.5,6.6
			c1.6,2.8,2.3,6.1,2.3,9.9c0,3.7-0.8,7-2.3,9.9c-1.6,2.8-3.8,5-6.5,6.6C171.3,298.5,168.1,299.3,164.4,299.3z M164.4,263.6
			c-2.8,0-5.3,0.7-7.5,2.1c-2.1,1.4-3.8,3.4-5,5.9c-1.2,2.5-1.8,5.5-1.8,8.9c0,3.4,0.6,6.4,1.8,8.9c1.2,2.5,2.9,4.5,5,5.9
			c2.1,1.4,4.6,2.1,7.5,2.1c2.9,0,5.4-0.7,7.5-2.1c2.1-1.4,3.8-3.4,5-5.9l0,0c1.2-2.5,1.8-5.5,1.8-8.9c0-3.4-0.6-6.4-1.8-8.9
			c-1.2-2.5-2.9-4.5-5-5.9C169.8,264.3,167.3,263.6,164.4,263.6z"/>
		<path id="XMLID_1008_" class="st0" d="M219,298.6h-21.5v-0.8h0.8c0.8,0,1.6-0.3,2.2-0.9c0.6-0.6,0.9-1.3,1-2.2v-28.4
			c0-0.8-0.3-1.6-1-2.2c-0.6-0.6-1.3-0.9-2.2-0.9h-0.8v-0.8H209v0.8h-0.8c-0.9,0-1.6,0.3-2.2,0.9c-0.6,0.6-0.9,1.3-1,2.2v30.4h7.2
			c1.8,0,3.2-0.3,4.4-0.8c1.1-0.5,2-1.3,2.7-2.3c0.7-1,1.3-2.2,1.9-3.5l0-0.1h0.8L219,298.6z"/>
		<path id="XMLID_1007_" class="st0" d="M250.4,298.6h-11.5v-0.8h0.8c0.9,0,1.6-0.3,2.2-0.9c0.6-0.6,0.9-1.3,1-2.2v-12.2l-9.7-16.2
			l-0.1-0.1c-0.5-0.8-1.2-1.5-2.1-2.1c-0.9-0.6-1.9-0.9-2.9-0.9h-0.9v-0.8h12.9v0.8h-0.8c-0.7,0-1.2,0.3-1.6,1
			c-0.4,0.6-0.4,1.3-0.1,1.9l7.6,14.1l7.9-13.8h0l0.1-0.2c0.3-0.4,0.4-0.9,0.2-1.3c-0.1-0.5-0.4-0.9-0.7-1.2
			c-0.4-0.3-0.7-0.4-1.2-0.4h-0.8v-0.8h11.7v0.8h-0.9c-1,0-2,0.3-2.9,0.9c-0.9,0.6-1.6,1.3-2.2,2.1l0,0l-10,16.2v12.2
			c0,0.8,0.3,1.6,0.9,2.2c0.6,0.6,1.3,0.9,2.2,0.9h0.8V298.6z"/>
		<path id="XMLID_1006_" class="st0" d="M293.6,298.6h-11.5v-0.8h0.8c0.8,0,1.6-0.3,2.2-0.9c0.6-0.6,0.9-1.3,1-2.2v-30.5h-9.5
			c-0.8,0-1.5,0.3-2,0.9c-0.6,0.6-0.8,1.2-0.8,2v1l-0.8,0.1v-6.8l0.2,0.1c0.3,0.1,0.8,0.3,1.5,0.4c0.7,0.1,1.4,0.2,2.3,0.4
			c0.8,0.1,1.6,0.2,2.3,0.2h17.2c0.8,0,1.5-0.1,2.4-0.2l0,0c0.9-0.1,1.6-0.2,2.3-0.4c0.7-0.1,1.2-0.3,1.5-0.4l0.2-0.1v6.9l-0.8-0.1
			v-1c0-0.8-0.3-1.5-0.8-2c-0.6-0.6-1.3-0.8-2-0.9h-9.5v30.5c0,0.8,0.4,1.6,1,2.2c0.6,0.6,1.3,0.9,2.2,0.9h0.8V298.6z"/>
		<path id="XMLID_1005_" class="st0" d="M328.3,298.6h-11.5v-0.8h0.8c0.8,0,1.6-0.3,2.2-0.9c0.6-0.6,0.9-1.3,1-2.2v-28.4
			c0-0.8-0.4-1.6-1-2.2c-0.6-0.6-1.3-0.9-2.2-0.9h-0.8v-0.8h11.5v0.8h-0.8c-0.8,0-1.6,0.3-2.2,0.9c-0.6,0.6-0.9,1.3-1,2.2v28.4
			c0,0.8,0.4,1.6,1,2.2c0.6,0.6,1.3,0.9,2.2,0.9h0.8V298.6z"/>
		<path id="XMLID_1004_" class="st0" d="M361.8,299.3c-3.6,0-6.8-0.8-9.5-2.4c-2.8-1.5-5-3.7-6.5-6.5c-1.6-2.8-2.4-6.1-2.4-9.9
			c0-3.7,0.8-7,2.3-9.8c1.5-2.8,3.7-5,6.5-6.6c2.8-1.6,6.1-2.4,9.9-2.4c2.5,0,4.8,0.3,6.9,1c2,0.7,3.8,1.5,5.3,2.5l0.1,0l1.1,7.5
			h-0.8l0-0.1c-0.7-3-2.3-5.2-4.5-6.8c-2.3-1.5-5-2.3-8-2.3c-3,0-5.6,0.7-7.7,2.1c-2.2,1.4-3.9,3.4-5.1,5.9
			c-1.2,2.5-1.8,5.5-1.8,8.9c0,3.4,0.6,6.4,1.8,8.9c1.2,2.5,2.9,4.5,5,5.9c2.1,1.4,4.6,2.2,7.5,2.2c2.4,0,4.6-0.5,6.7-1.3
			c2-0.9,3.8-2.4,5.1-4.4l0,0c1.4-2,2.3-4.8,2.6-8.2l0-0.1h0.7l0,0.2l-0.6,8.1c-0.9,1.5-2,2.8-3.4,4c-1.4,1.1-3,2.1-4.8,2.7
			C366.3,299,364.1,299.3,361.8,299.3z"/>
		<path id="XMLID_1003_" class="st0" d="M399.5,298.6h-10.6v-0.8h0.6c0.8,0,1.5-0.2,2.4-0.7c0.7-0.4,1.4-1.2,1.9-2.2l11.7-27.8
			c0.4-0.9,0.7-1.6,0.9-2.2c0.3-0.7,0.5-1.2,0.7-1.8c0.2-0.6,0.3-1,0.3-1.2v-0.2h0.7l13.8,32.9c0.5,1.1,1.2,1.9,2,2.4
			c0.8,0.5,1.6,0.7,2.4,0.7h0.6v0.8h-11.8v-0.8h0.6c0.6,0,1.1-0.3,1.6-0.8c0.4-0.5,0.5-1.1,0.2-2l-3.9-10.5l-3.3-9l-2.8-7.1L397,295
			c-0.2,0.6-0.2,1,0,1.4c0.2,0.4,0.4,0.8,0.8,1c0.4,0.2,0.7,0.4,1.1,0.4h0.6V298.6z"/>
	</g>
	<g id="XMLID_991_">
		<path id="XMLID_1000_" class="st0" d="M493.3,298.5h-4.7v-36h4.6l22.8,25.9v-25.9h4.7v36.3h-1.7l-25.6-29.1V298.5z"/>
		<path id="XMLID_998_" class="st0" d="M557.6,298.5h-20.4v-36h20.3l1.5,4.5h-16.8v11h14.1v4.4h-14.1v11.6H559L557.6,298.5z"/>
		<path id="XMLID_996_" class="st0" d="M604.5,298.5h-5.9l-11.5-14.9l-11.3,14.9H570l14.2-18.3l-13.8-17.8h5.9l11,14.3l11-14.3h5.7
			l-13.8,17.8L604.5,298.5z"/>
		<path id="XMLID_994_" class="st0" d="M632.2,299.2c-4.8,0-8.6-1.5-11.4-4.4c-2.8-2.9-4.2-6.9-4.2-12v-20.3h5v20.4
			c0,3.7,0.9,6.5,2.8,8.6c1.9,2.1,4.5,3.1,7.9,3.1c3.4,0,6-1,7.9-3.1c1.9-2.1,2.8-5,2.8-8.8v-20.2h4.8v20.3c0,5.1-1.4,9.1-4.1,12
			C640.9,297.7,637.1,299.2,632.2,299.2z"/>
		<path id="XMLID_992_" class="st0" d="M671.5,282.3c-3.5-1.6-6-3.2-7.3-4.8s-2-3.5-2-5.8c0-3,1-5.3,3-7.1c2-1.8,4.7-2.7,8-2.7
			c1.8,0,3.4,0.2,4.9,0.6c1.5,0.4,3,1.1,4.5,2.1v5.6h-0.1c-1.6-1.2-3.3-2.2-4.9-2.8c-1.6-0.6-3.2-0.9-4.7-0.9
			c-1.8,0-3.3,0.4-4.4,1.3c-1.1,0.8-1.6,2-1.6,3.4c0,1.4,0.5,2.5,1.5,3.4c1,0.9,3.1,2.1,6.3,3.6c3.4,1.5,5.8,3.1,7.2,4.8
			c1.4,1.6,2.1,3.6,2.1,5.9c0,3.1-1.1,5.5-3.2,7.4c-2.2,1.9-5,2.8-8.4,2.8c-1.9,0-3.8-0.3-5.6-0.9c-1.8-0.6-3.4-1.5-5-2.7l-1.2-6.7
			l0.1-0.1c1.9,1.8,3.9,3.1,6,4.1c2.1,1,4.1,1.5,5.9,1.5c2,0,3.6-0.5,4.8-1.4c1.2-0.9,1.8-2.2,1.8-3.8c0-1.3-0.5-2.5-1.6-3.5
			C676.7,284.8,674.6,283.7,671.5,282.3z"/>
	</g>
	<g id="XMLID_978_">
		<g id="XMLID_988_">
			<defs>
				<rect id="XMLID_989_" x="721.1" y="245" width="13.9" height="13.9"/>
			</defs>
			<use xlink:href="#XMLID_989_"  style="overflow:visible;fill:#BF8470;"/>
			<clipPath id="XMLID_2_">
				<use xlink:href="#XMLID_989_"  style="overflow:visible;"/>
			</clipPath>
			<rect id="XMLID_990_" x="721.1" y="245" class="st1" width="13.9" height="13.9"/>
		</g>
		<g id="XMLID_985_">
			<defs>
				<rect id="XMLID_986_" x="709.6" y="272.6" width="7.8" height="8.1"/>
			</defs>
			<use xlink:href="#XMLID_986_"  style="overflow:visible;fill:#BF8470;"/>
			<clipPath id="XMLID_3_">
				<use xlink:href="#XMLID_986_"  style="overflow:visible;"/>
			</clipPath>
			<rect id="XMLID_987_" x="709.6" y="272.6" class="st2" width="7.8" height="8.1"/>
		</g>
		<g id="XMLID_982_">
			<defs>
				<rect id="XMLID_983_" x="705.9" y="307.8" width="7.5" height="7.5"/>
			</defs>
			<use xlink:href="#XMLID_983_"  style="overflow:visible;fill:#BF8470;"/>
			<clipPath id="XMLID_4_">
				<use xlink:href="#XMLID_983_"  style="overflow:visible;"/>
			</clipPath>
			<rect id="XMLID_984_" x="705.9" y="307.8" class="st3" width="7.5" height="7.5"/>
		</g>
		<g id="XMLID_979_">
			<defs>
				<rect id="XMLID_980_" x="722.7" y="293.8" width="8.3" height="8.3"/>
			</defs>
			<use xlink:href="#XMLID_980_"  style="overflow:visible;fill:#BF8470;"/>
			<clipPath id="XMLID_5_">
				<use xlink:href="#XMLID_980_"  style="overflow:visible;"/>
			</clipPath>
			<rect id="XMLID_981_" x="722.7" y="293.8" class="st4" width="8.3" height="8.3"/>
		</g>
	</g>
</g>
</svg>
